<?xml version="1.0" encoding="UTF-8"?>
<!-- Generator: Adobe Illustrator 22.1.0, SVG Export Plug-In . SVG Version: 6.00 Build 0)  -->
<svg version="1.1" id="Layer_1" xmlns="http://www.w3.org/2000/svg" xmlns:xlink="http://www.w3.org/1999/xlink" x="0px" y="0px" viewBox="0 0 58 57" style="enable-background:new 0 0 58 57;" xml:space="preserve">
<metadata><?xpacket begin="﻿" id="W5M0MpCehiHzreSzNTczkc9d"?>
<x:xmpmeta xmlns:x="adobe:ns:meta/" x:xmptk="Adobe XMP Core 5.6-c143 79.161356, 2017/09/07-01:11:22        ">
   <rdf:RDF xmlns:rdf="http://www.w3.org/1999/02/22-rdf-syntax-ns#">
      <rdf:Description rdf:about=""/>
   </rdf:RDF>
</x:xmpmeta>
                                                                                                    
                                                                                                    
                                                                                                    
                                                                                                    
                                                                                                    
                                                                                                    
                                                                                                    
                                                                                                    
                                                                                                    
                                                                                                    
                                                                                                    
                                                                                                    
                                                                                                    
                                                                                                    
                                                                                                    
                                                                                                    
                                                                                                    
                                                                                                    
                                                                                                    
                                                                                                    
                           
<?xpacket end="w"?></metadata>
<style type="text/css">
	.st0{opacity:0.97;fill:#65BDE0;}
	.st1{fill:#65BDE0;}
	.st2{fill:none;stroke:#65BDE0;stroke-linecap:round;stroke-linejoin:round;stroke-miterlimit:10;}
	.st3{fill:#65BDE0;stroke:#E7E1D7;stroke-width:2.52;stroke-miterlimit:10;}
	.st4{fill:#65BDE0;stroke:#EF4A3B;stroke-width:2.5;stroke-miterlimit:10;}
	.st5{opacity:0.97;}
	.st6{fill:#90993F;}
	.st7{fill:#65BDE0;stroke:#FFFFFF;stroke-width:2.5;stroke-miterlimit:10;}
	.st8{clip-path:url(#SVGID_2_);}
</style>
<circle class="st0" cx="45.8" cy="13" r="1.1"/>
<circle class="st0" cx="50.9" cy="20.9" r="1.1"/>
<path class="st0" d="M48.4,13.8c-0.1-0.1,0-0.3,0.1-0.3l2.3-1.5c0.1-0.1,0.1-0.2,0.1-0.3l-1.5-2.3c-0.1-0.1-0.2-0.2-0.4-0.1l-2,0.4  c-0.1,0-0.3,0.1-0.4,0.2L44.8,11c-0.1,0.1-0.1,0.2-0.1,0.3l0.3,0.5c0,0,0,0,0,0c0.6-0.4,1.5-0.2,1.9,0.4c0.3,0.5,0.3,1.1,0,1.5  l2.5,3.9c0.5-0.1,1,0.1,1.3,0.6c0.3,0.4,0.3,1,0,1.4l0,0c0.5-0.1,1,0.1,1.3,0.6c0.3,0.4,0.3,1,0,1.4l0.8,1.2l1-0.7L48.4,13.8z   M48.5,11.9c-0.1,0-0.2,0-0.2,0l-1-1.5c-0.1-0.1,0-0.2,0.1-0.2L49,9.7c0.1,0,0.1,0,0.2,0.1l0.7,1c0,0.1,0,0.2,0,0.2L48.5,11.9z"/>
<circle class="st0" cx="49.6" cy="18.9" r="1.1"/>
<rect x="49.4" y="12.6" transform="matrix(0.5407 0.8412 -0.8412 0.5407 34.9226 -36.1573)" class="st0" width="2.3" height="2.7"/>
<rect x="51.9" y="11" transform="matrix(0.5407 0.8412 -0.8412 0.5407 34.7246 -38.9247)" class="st0" width="2.3" height="2.7"/>
<rect x="53.2" y="13.1" transform="matrix(0.5407 0.8412 -0.8412 0.5407 37.0958 -39.0944)" class="st0" width="2.3" height="2.7"/>
<rect x="54.6" y="15.2" transform="matrix(0.5407 0.8412 -0.8412 0.5407 39.4722 -39.2645)" class="st0" width="2.3" height="2.7"/>
<rect x="50.8" y="14.7" transform="matrix(0.5407 0.8412 -0.8412 0.5407 37.2938 -36.327)" class="st0" width="2.3" height="2.7"/>
<rect x="52.1" y="16.7" transform="matrix(0.5407 0.8412 -0.8412 0.5407 39.6701 -36.4995)" class="st0" width="2.3" height="2.7"/>
<path class="st1" d="M8.8,21l-4.4,0.2l0.2,6.1l-2.4,0.1c-0.5,0-0.8,0.4-0.8,0.9l0.4,9.9c0,0.5,0.4,0.9,0.9,0.9l6.8-0.2l0,0.6l2.7,0  l-0.8-2l-3.5,0.1l-0.1-3.1l0-0.8l-0.2-5.1l2.2-0.1l0.4-7.9l-1.4,0L8.8,21z M5.8,36.4l0,1.2l-1.1,0l0-1.2L5.8,36.4z M4.2,36.5l0,1.2  l-1.1,0l0-1.2L4.2,36.5z M5.7,34.4l0,1.2l-1.1,0l0-1.2L5.7,34.4z M4.1,34.5l0,1.2l-1.1,0l0-1.2L4.1,34.5z M5.6,32.5l0,1.2l-1.1,0  l0-1.2L5.6,32.5z M4,32.5l0,1.2l-1.1,0l0-1.2L4,32.5z M5.6,30.5l0,1.2l-1.1,0l0-1.2L5.6,30.5z M3.9,30.6l0,1.2l-1.1,0l0-1.2  L3.9,30.6z M5.5,28.6l0,1.2l-1.1,0l0-1.2L5.5,28.6z M3.9,28.6l0,1.2l-1.1,0l0-1.2L3.9,28.6z M8.3,21.6l0.1,2.2l-1.1,0l-0.1-2.2  L8.3,21.6z M6.5,21.6l0.1,2.2l-1.1,0l-0.1-2.2L6.5,21.6z"/>
<path class="st1" d="M1,28.5c-0.5,0-0.8,0.4-0.8,0.8l0.3,8c0,0.4,0.4,0.8,0.9,0.7L1,28.5z"/>
<g>
	<g>
		<path class="st1" d="M24.1,50.4l0.4-1.1c0,0,0,0,0.1,0l0.5,0.1c0,0,0,0,0,0.1l-0.2,1.2L24.1,50.4L24.1,50.4z"/>
		<path class="st1" d="M27.9,49.9C27.9,49.8,28,49.8,27.9,49.9l0.5,0c0,0,0,0,0,0.1l0,0.9c-0.2,0-0.5,0-0.7,0.1L27.9,49.9z"/>
	</g>
	<path class="st1" d="M27.8,51.2c0,0,0.5-0.1,0.8-0.1c0.1,0,0.1,0,0.1,0c0.1,0,0.1,0,0.1,0l0,0l0.6-1.1c0-0.1,0.1-0.1,0.2-0.1   l0.5,0.1c0.1,0,0.2,0.1,0.2,0.2l-0.2,2.7c0.3,0.6,0.3,1,0.2,1.4c0.1,0.1,0.3,0.2,0.3,0.2c0,0.1-0.4,0.3-0.6,0.4c0,0,0,0,0,0.1   c-0.1,0.1-0.2,0.2-0.3,0.3c-0.6,0.6-1.5,0.9-2.3,0.7l-4.3-0.7c-0.3-0.1-0.6-0.2-0.9-0.3c-0.3,0.2-0.7,0.4-0.7,0.4   c-0.1,0-0.1,0.1-0.2,0.1c-0.1,0-0.1-0.1,0-0.2l0-0.2c0-0.2,0.1-0.5,0.2-0.6c-0.3-0.3-0.5-0.7-0.6-1.1l0,0l-0.6-1.3l-0.5-0.3   c-0.1,0-0.1-0.1-0.1-0.2l0.2-1c0-0.1,0.1-0.2,0.2-0.2l1.3,0l1.3,0.1l0.3-1.6c0-0.1,0.1-0.1,0.2-0.1l0.5,0.1c0.1,0,0.2,0.1,0.2,0.2   l0,1.2l0,0.4l0,0l0.2,0l0.2,0l0.3,0.1L27.8,51.2"/>
</g>
<g>
	<polyline class="st2" points="49.8,51.7 50.8,50.3 47,45 50.7,39.9  "/>
	<path class="st1" d="M46.5,42.7c-0.3-0.2-0.7-0.2-0.9,0.1c-0.2,0.3-0.2,0.8,0.1,1c0.3,0.2,0.7,0.2,0.9-0.1   C46.9,43.3,46.8,42.9,46.5,42.7z M46.4,42.9c0.2,0.1,0.2,0.4,0.1,0.6c-0.1,0.2-0.4,0.2-0.5,0.1s-0.2-0.4-0.1-0.6   C46,42.8,46.2,42.8,46.4,42.9z"/>
	<g>
		<path class="st1" d="M46.3,43C46.2,43,46,43,46,43.1c-0.1,0.1-0.1,0.2,0,0.3c0.1,0.1,0.2,0.1,0.3,0C46.4,43.3,46.4,43.1,46.3,43z"/>
	</g>
	<path class="st1" d="M49.1,39.1c-0.3-0.2-0.7-0.2-0.9,0.1c-0.2,0.3-0.2,0.8,0.1,1c0.3,0.2,0.7,0.2,0.9-0.1   C49.5,39.8,49.4,39.4,49.1,39.1z M49,39.4c0.2,0.1,0.2,0.4,0.1,0.6s-0.4,0.2-0.5,0.1s-0.2-0.4-0.1-0.6C48.5,39.3,48.8,39.2,49,39.4   z"/>
	<g>
		<path class="st1" d="M48.9,39.5c-0.1-0.1-0.2-0.1-0.3,0c-0.1,0.1-0.1,0.2,0,0.3c0.1,0.1,0.2,0.1,0.3,0C49,39.7,49,39.6,48.9,39.5z    "/>
	</g>
	<path class="st3" d="M49,43.1"/>
	<path class="st3" d="M49.2,47"/>
	<path class="st4" d="M49.1,43"/>
	<path class="st4" d="M52.8,47.1"/>
	<path class="st4" d="M50.2,41.6"/>
	<path class="st4" d="M54.5,44.7"/>
	<path class="st4" d="M49.3,47"/>
	<path class="st4" d="M53.6,41.1"/>
	<path class="st4" d="M49.3,47"/>
	<path class="st4" d="M53.6,41.1"/>
	<g class="st5">
		<polygon class="st1" points="50.8,45.2 52.3,46.9 50.9,48.7 49.6,46.9   "/>
		<polygon class="st1" points="49.4,46.6 48.1,44.9 49.3,43.4 50.6,44.9   "/>
	</g>
	<polygon class="st0" points="50.8,44.7 49.5,43.1 50.3,41.9 51.9,43.1  "/>
	<polygon class="st0" points="52.2,43.3 54,44.6 52.5,46.6 51,44.9  "/>
	<g class="st5">
		<polygon class="st1" points="52.1,42.9 50.5,41.7 51.6,40.3 53.3,41.3   "/>
		<polygon class="st1" points="53.6,41.4 55.5,42.6 54.2,44.3 52.4,43   "/>
	</g>
	<path class="st4" d="M50.4,41.8"/>
	<path class="st4" d="M54.3,44.6"/>
</g>
<path class="st1" d="M37.1,24.2c0.1,0,0.3,0.1,0.4,0.1c0.2,0,0.9-0.3,1.3-0.5C38.3,24,37.7,24.1,37.1,24.2z"/>
<path class="st1" d="M13.9,20.3l5.7-0.5l3.7-2.2l1.9-3.9l2.5-0.6l0.7-2.2l-4.9-0.5l-1.7-1.6c5.7-2.3,12.1-2,17.5,0.7l-2.4,1.7  l-3.4-0.3l-1.5,3l2.6-1.1l3.3,0.1l1.8,0.6l3-0.3l2.5,0.6c1.2,1.3,2.3,2.7,3.2,4.3l-0.2,0.1l-6.5,3.2l-3.1,0.6c0,0-6.8,1.5-6.4,2  c0.4,0.5,4.2,1.9,5,1.9c0.8,0.1,2.5-0.8,2.5-0.8l3.2,0.7l0.4,3.9l1,2.6l1.7,3.4l-0.6,3l2,2c-6.8,9.7-20.2,12-29.8,5.1  c-8.2-5.8-11.3-16.5-7.4-25.8L13.9,20.3z"/>
<g>
	<path class="st6" d="M30.7,32.4c0.2,0.4-0.4,3.1-0.7,3.7c-0.4,0.6-2.8,2.5-3,3c-0.2,0.4,0.2,1.8,0,2.2c-0.2,0.4-2.6,1.7-3,2.2   c-0.4,0.5,0.4,3.3,0,3.7c-0.4,0.3-1.9-0.4-2.2-0.7c-0.4-0.3-1.4-3-1.5-3.7c-0.1-0.7,0.3-7.1,0-7.4s-3-0.4-3.7-0.7   c-0.6-0.3-1.4-2.4-1.5-3c-0.1-0.5-0.1-1.6,0-2.2c0.1-0.6,3.1-3.7,3.7-3.7c0.5,0,1.5,3,1.5,3s4.6-0.2,5.2,0c0.6,0.2,2.2,3.7,2.2,3.7   S30.5,32,30.7,32.4z"/>
</g>
<g>
	<g>
		<path class="st6" d="M45.4,13.9c0,0-1.5,1.2-2.2,1.2c-0.7,0-3-0.5-3.7-0.7c-0.7-0.2-1.4-0.7-2.2-0.7s-2.5,0.7-3,0.7    s-2.1,0-2.2-0.5c-0.1-0.5,1-2.7,1.5-3s2.2,0.1,3,0c0.7-0.1,2.9-1.4,2.9-1.4C41.7,10.6,43.7,12.1,45.4,13.9z"/>
	</g>
	<g>
		<path class="st6" d="M28.4,10.9c0.3,0.4-0.2,1.7-0.7,2.2c-0.6,0.5-1.7,0.4-2.2,0.7s-1.7,3-2.2,3.7s-3.4,2-3.7,2.2    s-4.8,0.5-5.2,0.7c-0.4,0.3,0,2.2,0,2.2s0.2,3.2-0.3,3.3c-1.5,0.4-2.1-1.2-2.6-1.8c-0.5-0.6-1.3-3.9-1.3-3.9    c2.2-5.3,6.4-9.4,11.7-11.6c0,0,1.3,1.3,2.1,1.4C24.8,10.2,28.2,10.5,28.4,10.9z"/>
	</g>
	<g>
		<path class="st6" d="M48.6,18.2c4,7.2,3.6,16.1-1.2,22.8c0,0-1.8-1.3-2-2c-0.2-0.7,0.2-2.2,0-3c-0.2-0.7-2.8-5.3-3-5.9    c-0.2-0.6,0-2.5,0-3c0-0.5-1.6-1.5-2.2-1.5c-0.6,0-2.5,0.8-3,0.7s-4.7-0.7-5.2-1.4c-0.5-0.7-0.8-3.4-0.7-4    c0.1-0.6,1.4-1.3,2.3-1.6c0.8-0.4,3.6-1,4.4-0.6c0.7,0.5,0.4,1.7,1.5,2.2c1.1,0.5,3.3-1.1,4.4-1.2c1.1-0.1,4.4-1.5,4.4-1.5    L48.6,18.2z"/>
	</g>
</g>
<g>
	<path class="st0" d="M26.5,1.5c0.4-0.3,0.9-0.9,0.9-0.9S26,0,25.5,0.2c-0.5,0.2-0.6,0.7-0.8,1c-0.4,0.6-1.2,1.8-2.1,2   c-0.8,0.2-1.5-0.8-1.8-1.2c-0.3-0.4-0.7-0.6-1.2-0.6c-0.4,0.1-0.8,0.6-0.9,0.7c-0.1,0.2-0.3,0.4-0.3,0.6c0.4-0.1,0.8,0,1.1-0.1   c0,0.5-0.5,0.9-0.3,1.6c0.4,1.1,1.1,1.9,2.1,2C22,6.3,22.6,6.7,23,7l1.2-0.3c0.3-0.8,1.3-0.6,1.5-1.4c0.3-0.9,1.1-3.1,1.2-3.2   c-0.1,0-0.6,0.1-0.6,0.1c0.2-0.2,0.9-1,0.9-1S26.5,1.5,26.5,1.5z"/>
	<g>
		<path class="st1" d="M23.5,7.7c0,0.1,0,0.1-0.1,0.2l-0.7,0.4c-0.1,0.1-0.1,0.1-0.1,0.2c0,0.1,0.1,0.1,0.2,0.1c0,0,1.5-0.1,1.5-0.2    C24.4,8.3,27.6,8,27.6,8l-2.8-0.1c0.1,0,0.2,0,0.2-0.1c0-0.1-0.1-0.1-0.2-0.1l-0.6,0c-0.1,0-0.1,0-0.2-0.1c0,0,0-0.1,0-0.2    c0-0.3,0-0.4,0-0.5l-0.7,0.2C23.4,7.1,23.4,7.6,23.5,7.7z"/>
	</g>
</g>
<g>
	<path class="st1" d="M19.7,1.3c0,0-0.1-0.9-0.2-0.5c-0.1,0.2-0.1,0.4-0.1,0.4c-0.1,0-0.4-0.5-0.5-0.4c-0.1,0.2,0,0.4,0,0.5   c0,0.1-0.3-0.2-0.3,0c0,0.1,0.3,0.5,0.3,0.5S19.3,1.3,19.7,1.3z"/>
</g>
<g>
	<path class="st1" d="M19.1,3c0,0,0,0.1,0.1,0.2c0,0.1,0,0.1,0.1,0.1S19.4,3,19.4,3S19.1,3,19.1,3z"/>
</g>
<path class="st7" d="M58.6,17.6"/>
<path class="st1" d="M59.2,16.6"/>
<g>
	<defs>
		<rect id="SVGID_1_" y="0.4" width="206.2" height="143.6"/>
	</defs>
	<clipPath id="SVGID_2_">
		<use xlink:href="#SVGID_1_" style="overflow:visible;"/>
	</clipPath>
	<g class="st8">
		<defs>
			<rect id="SVGID_3_" x="-1.7" y="-1.5" width="209.5" height="147.1"/>
		</defs>
		<clipPath id="SVGID_4_">
			<use xlink:href="#SVGID_3_" style="overflow:visible;"/>
		</clipPath>
	</g>
</g>
</svg>